<mxfile host="app.diagrams.net" agent="Mozilla/5.0 (Macintosh; Intel Mac OS X 10_15_7) AppleWebKit/537.36 (KHTML, like Gecko) Chrome/131.0.0.0 Safari/537.36" version="25.0.3" pages="2">
  <diagram name="Data Architecture-Higher level" id="0">
    <mxGraphModel dx="1194" dy="605" grid="1" gridSize="10" guides="1" tooltips="1" connect="1" arrows="1" fold="1" page="1" pageScale="1" pageWidth="827" pageHeight="1169" math="0" shadow="0">
      <root>
        <mxCell id="0" />
        <mxCell id="1" parent="0" />
        <mxCell id="2" value="Data Sources" style="rounded=1;whiteSpace=wrap;html=1;fillColor=#add8e6;strokeColor=#000000;" parent="1" vertex="1">
          <mxGeometry x="50" y="50" width="120" height="60" as="geometry" />
        </mxCell>
        <mxCell id="3" value="Ingestion Layer" style="rounded=1;whiteSpace=wrap;html=1;fillColor=#90ee90;strokeColor=#000000;" parent="1" vertex="1">
          <mxGeometry x="230" y="50" width="140" height="60" as="geometry" />
        </mxCell>
        <mxCell id="4" value="Data Lake" style="rounded=1;whiteSpace=wrap;html=1;fillColor=#ffcccb;strokeColor=#000000;" parent="1" vertex="1">
          <mxGeometry x="450" y="50" width="120" height="60" as="geometry" />
        </mxCell>
        <mxCell id="5" value="ETL Layer" style="rounded=1;whiteSpace=wrap;html=1;fillColor=#ffffe0;strokeColor=#000000;" parent="1" vertex="1">
          <mxGeometry x="230" y="200" width="140" height="60" as="geometry" />
        </mxCell>
        <mxCell id="6" value="Data Warehouse" style="rounded=1;whiteSpace=wrap;html=1;fillColor=#f08080;strokeColor=#000000;" parent="1" vertex="1">
          <mxGeometry x="450" y="200" width="140" height="60" as="geometry" />
        </mxCell>
        <mxCell id="7" value="Analytics/ML" style="rounded=1;whiteSpace=wrap;html=1;fillColor=#e6e6fa;strokeColor=#000000;" parent="1" vertex="1">
          <mxGeometry x="230" y="350" width="140" height="60" as="geometry" />
        </mxCell>
        <mxCell id="8" value="Visualization" style="rounded=1;whiteSpace=wrap;html=1;fillColor=#e0ffff;strokeColor=#000000;" parent="1" vertex="1">
          <mxGeometry x="450" y="350" width="140" height="60" as="geometry" />
        </mxCell>
        <mxCell id="9" parent="1" source="2" target="3" edge="1">
          <mxGeometry relative="1" as="geometry" />
        </mxCell>
        <mxCell id="10" parent="1" source="3" target="4" edge="1">
          <mxGeometry relative="1" as="geometry" />
        </mxCell>
        <mxCell id="11" parent="1" source="4" target="5" edge="1">
          <mxGeometry relative="1" as="geometry" />
        </mxCell>
        <mxCell id="12" parent="1" source="5" target="6" edge="1">
          <mxGeometry relative="1" as="geometry" />
        </mxCell>
        <mxCell id="13" parent="1" source="6" target="8" edge="1">
          <mxGeometry relative="1" as="geometry" />
        </mxCell>
        <mxCell id="14" parent="1" source="5" target="7" edge="1">
          <mxGeometry relative="1" as="geometry" />
        </mxCell>
        <mxCell id="15" parent="1" source="7" target="8" edge="1">
          <mxGeometry relative="1" as="geometry" />
        </mxCell>
      </root>
    </mxGraphModel>
  </diagram>
  <diagram id="K7iK81XVi3Ap49yghgXj" name="Detailed_Architecture">
    <mxGraphModel dx="3503" dy="2444" grid="1" gridSize="10" guides="1" tooltips="1" connect="1" arrows="1" fold="1" page="1" pageScale="1" pageWidth="850" pageHeight="1100" math="0" shadow="0">
      <root>
        <mxCell id="0" />
        <mxCell id="1" parent="0" />
        <mxCell id="oa4fXH4DdUcv1K2VR2Nh-54" value="Extra-Services" style="rounded=1;whiteSpace=wrap;html=1;fontSize=19;fontStyle=1;labelPosition=center;verticalLabelPosition=top;align=center;verticalAlign=bottom;" vertex="1" parent="1">
          <mxGeometry x="-390" y="-192" width="1710" height="180" as="geometry" />
        </mxCell>
        <mxCell id="oa4fXH4DdUcv1K2VR2Nh-12" value="" style="rounded=1;whiteSpace=wrap;html=1;" vertex="1" parent="1">
          <mxGeometry x="-371" y="-780" width="142" height="350" as="geometry" />
        </mxCell>
        <mxCell id="2N7-qyUZDRO62LL4dCJT-25" value="" style="rounded=1;whiteSpace=wrap;fillColor=#e1d5e7;strokeColor=#9673a6;container=0;" parent="1" vertex="1">
          <mxGeometry x="330.5" y="-789.87" width="140.5" height="340.87" as="geometry" />
        </mxCell>
        <mxCell id="RH50ju2F59jBH_H8k_wx-2" value="" style="rounded=1;whiteSpace=wrap;html=1;fillColor=#E3E3E3;strokeColor=#666666;fontColor=#333333;arcSize=6;" parent="1" vertex="1">
          <mxGeometry x="833" y="-707" width="378" height="274.28" as="geometry" />
        </mxCell>
        <mxCell id="1zjH6qObIByruiWaNDZl-1" value="" style="rounded=1;whiteSpace=wrap;fillColor=#DDEEFF;" parent="1" vertex="1">
          <mxGeometry x="-147" y="-677" width="160" height="210" as="geometry" />
        </mxCell>
        <mxCell id="1zjH6qObIByruiWaNDZl-2" value="Catalog (XML)" style="ellipse;whiteSpace=wrap;fillColor=#FFFFCC;" parent="1zjH6qObIByruiWaNDZl-1" vertex="1">
          <mxGeometry x="21" y="14.5" width="128" height="26.25" as="geometry" />
        </mxCell>
        <mxCell id="1zjH6qObIByruiWaNDZl-3" value="Customer (CSV)" style="ellipse;whiteSpace=wrap;fillColor=#FFFFCC;" parent="1zjH6qObIByruiWaNDZl-1" vertex="1">
          <mxGeometry x="21" y="63" width="128" height="26.25" as="geometry" />
        </mxCell>
        <mxCell id="1zjH6qObIByruiWaNDZl-4" value="Order (EDI)" style="ellipse;whiteSpace=wrap;fillColor=#FFFFCC;" parent="1zjH6qObIByruiWaNDZl-1" vertex="1">
          <mxGeometry x="21" y="115.5" width="128" height="26.25" as="geometry" />
        </mxCell>
        <mxCell id="1zjH6qObIByruiWaNDZl-5" value="Price &amp; Stock (CSV)" style="ellipse;whiteSpace=wrap;fillColor=#FFFFCC;" parent="1zjH6qObIByruiWaNDZl-1" vertex="1">
          <mxGeometry x="21" y="169" width="128" height="26.25" as="geometry" />
        </mxCell>
        <mxCell id="1zjH6qObIByruiWaNDZl-7" value="" style="rounded=1;whiteSpace=wrap;fillColor=#e1d5e7;strokeColor=#9673a6;" parent="1" vertex="1">
          <mxGeometry x="330.5" y="-789.87" width="139.74" height="340.87" as="geometry" />
        </mxCell>
        <mxCell id="nltJWAeBDd0AYbxvlWmP-1" value="" style="sketch=0;outlineConnect=0;fillColor=#6a00ff;strokeColor=#3700CC;dashed=0;verticalLabelPosition=bottom;verticalAlign=top;align=center;html=1;fontSize=12;fontStyle=0;aspect=fixed;pointerEvents=1;shape=mxgraph.aws4.iot_analytics_pipeline;fontColor=#ffffff;" parent="1zjH6qObIByruiWaNDZl-7" vertex="1">
          <mxGeometry x="24.701785714285716" y="119.66" width="75.03750000000001" height="40.39907142857143" as="geometry" />
        </mxCell>
        <mxCell id="nltJWAeBDd0AYbxvlWmP-3" value="" style="sketch=0;outlineConnect=0;fillColor=#6a00ff;strokeColor=#3700CC;dashed=0;verticalLabelPosition=bottom;verticalAlign=top;align=center;html=1;fontSize=12;fontStyle=0;aspect=fixed;pointerEvents=1;shape=mxgraph.aws4.iot_analytics_pipeline;fontColor=#ffffff;" parent="1zjH6qObIByruiWaNDZl-7" vertex="1">
          <mxGeometry x="27.73125" y="176.87" width="75.03750000000001" height="40.39907142857143" as="geometry" />
        </mxCell>
        <mxCell id="nltJWAeBDd0AYbxvlWmP-4" value="&lt;span style=&quot;color: rgba(0, 0, 0, 0); font-family: monospace; font-size: 0px; text-align: start;&quot;&gt;%3CmxGraphModel%3E%3Croot%3E%3CmxCell%20id%3D%220%22%2F%3E%3CmxCell%20id%3D%221%22%20parent%3D%220%22%2F%3E%3CmxCell%20id%3D%222%22%20value%3D%22%22%20style%3D%22rounded%3D1%3BwhiteSpace%3Dwrap%3BfillColor%3D%23e1d5e7%3BstrokeColor%3D%239673a6%3B%22%20vertex%3D%221%22%20parent%3D%221%22%3E%3CmxGeometry%20x%3D%22450.5%22%20y%3D%229.13%22%20width%3D%22140%22%20height%3D%22340.87%22%20as%3D%22geometry%22%2F%3E%3C%2FmxCell%3E%3CmxCell%20id%3D%223%22%20value%3D%22%22%20style%3D%22sketch%3D0%3BoutlineConnect%3D0%3BfillColor%3D%236a00ff%3BstrokeColor%3D%233700CC%3Bdashed%3D0%3BverticalLabelPosition%3Dbottom%3BverticalAlign%3Dtop%3Balign%3Dcenter%3Bhtml%3D1%3BfontSize%3D12%3BfontStyle%3D0%3Baspect%3Dfixed%3BpointerEvents%3D1%3Bshape%3Dmxgraph.aws4.iot_analytics_pipeline%3BfontColor%3D%23ffffff%3B%22%20vertex%3D%221%22%20parent%3D%222%22%3E%3CmxGeometry%20x%3D%2229.5%22%20y%3D%22122.66%22%20width%3D%2280.5%22%20height%3D%2243.34%22%20as%3D%22geometry%22%2F%3E%3C%2FmxCell%3E%3CmxCell%20id%3D%224%22%20value%3D%22%22%20style%3D%22sketch%3D0%3BoutlineConnect%3D0%3BfillColor%3D%236a00ff%3BstrokeColor%3D%233700CC%3Bdashed%3D0%3BverticalLabelPosition%3Dbottom%3BverticalAlign%3Dtop%3Balign%3Dcenter%3Bhtml%3D1%3BfontSize%3D12%3BfontStyle%3D0%3Baspect%3Dfixed%3BpointerEvents%3D1%3Bshape%3Dmxgraph.aws4.iot_analytics_pipeline%3BfontColor%3D%23ffffff%3B%22%20vertex%3D%221%22%20parent%3D%222%22%3E%3CmxGeometry%20x%3D%2229.75%22%20y%3D%22176.87%22%20width%3D%2280.5%22%20height%3D%2243.34%22%20as%3D%22geometry%22%2F%3E%3C%2FmxCell%3E%3CmxCell%20id%3D%225%22%20value%3D%22%22%20style%3D%22sketch%3D0%3BoutlineConnect%3D0%3BfillColor%3D%236a00ff%3BstrokeColor%3D%233700CC%3Bdashed%3D0%3BverticalLabelPosition%3Dbottom%3BverticalAlign%3Dtop%3Balign%3Dcenter%3Bhtml%3D1%3BfontSize%3D12%3BfontStyle%3D0%3Baspect%3Dfixed%3BpointerEvents%3D1%3Bshape%3Dmxgraph.aws4.iot_analytics_pipeline%3BfontColor%3D%23ffffff%3B%22%20vertex%3D%221%22%20parent%3D%222%22%3E%3CmxGeometry%20x%3D%2229.75%22%20y%3D%22230.87%22%20width%3D%2280.5%22%20height%3D%2243.34%22%20as%3D%22geometry%22%2F%3E%3C%2FmxCell%3E%3C%2Froot%3E%3C%2FmxGraphModel%3E&lt;/span&gt;" style="sketch=0;outlineConnect=0;fillColor=#6a00ff;strokeColor=#3700CC;dashed=0;verticalLabelPosition=bottom;verticalAlign=top;align=center;html=1;fontSize=12;fontStyle=0;aspect=fixed;pointerEvents=1;shape=mxgraph.aws4.iot_analytics_pipeline;fontColor=#ffffff;" parent="1zjH6qObIByruiWaNDZl-7" vertex="1">
          <mxGeometry x="27.73125" y="230.87" width="75.03750000000001" height="40.39907142857143" as="geometry" />
        </mxCell>
        <mxCell id="nltJWAeBDd0AYbxvlWmP-9" value="&lt;span style=&quot;color: rgba(0, 0, 0, 0); font-family: monospace; font-size: 0px; text-align: start;&quot;&gt;%3CmxGraphModel%3E%3Croot%3E%3CmxCell%20id%3D%220%22%2F%3E%3CmxCell%20id%3D%221%22%20parent%3D%220%22%2F%3E%3CmxCell%20id%3D%222%22%20value%3D%22%22%20style%3D%22rounded%3D1%3BwhiteSpace%3Dwrap%3BfillColor%3D%23e1d5e7%3BstrokeColor%3D%239673a6%3B%22%20vertex%3D%221%22%20parent%3D%221%22%3E%3CmxGeometry%20x%3D%22450.5%22%20y%3D%229.13%22%20width%3D%22140%22%20height%3D%22340.87%22%20as%3D%22geometry%22%2F%3E%3C%2FmxCell%3E%3CmxCell%20id%3D%223%22%20value%3D%22%22%20style%3D%22sketch%3D0%3BoutlineConnect%3D0%3BfillColor%3D%236a00ff%3BstrokeColor%3D%233700CC%3Bdashed%3D0%3BverticalLabelPosition%3Dbottom%3BverticalAlign%3Dtop%3Balign%3Dcenter%3Bhtml%3D1%3BfontSize%3D12%3BfontStyle%3D0%3Baspect%3Dfixed%3BpointerEvents%3D1%3Bshape%3Dmxgraph.aws4.iot_analytics_pipeline%3BfontColor%3D%23ffffff%3B%22%20vertex%3D%221%22%20parent%3D%222%22%3E%3CmxGeometry%20x%3D%2229.5%22%20y%3D%22122.66%22%20width%3D%2280.5%22%20height%3D%2243.34%22%20as%3D%22geometry%22%2F%3E%3C%2FmxCell%3E%3CmxCell%20id%3D%224%22%20value%3D%22%22%20style%3D%22sketch%3D0%3BoutlineConnect%3D0%3BfillColor%3D%236a00ff%3BstrokeColor%3D%233700CC%3Bdashed%3D0%3BverticalLabelPosition%3Dbottom%3BverticalAlign%3Dtop%3Balign%3Dcenter%3Bhtml%3D1%3BfontSize%3D12%3BfontStyle%3D0%3Baspect%3Dfixed%3BpointerEvents%3D1%3Bshape%3Dmxgraph.aws4.iot_analytics_pipeline%3BfontColor%3D%23ffffff%3B%22%20vertex%3D%221%22%20parent%3D%222%22%3E%3CmxGeometry%20x%3D%2229.75%22%20y%3D%22176.87%22%20width%3D%2280.5%22%20height%3D%2243.34%22%20as%3D%22geometry%22%2F%3E%3C%2FmxCell%3E%3CmxCell%20id%3D%225%22%20value%3D%22%22%20style%3D%22sketch%3D0%3BoutlineConnect%3D0%3BfillColor%3D%236a00ff%3BstrokeColor%3D%233700CC%3Bdashed%3D0%3BverticalLabelPosition%3Dbottom%3BverticalAlign%3Dtop%3Balign%3Dcenter%3Bhtml%3D1%3BfontSize%3D12%3BfontStyle%3D0%3Baspect%3Dfixed%3BpointerEvents%3D1%3Bshape%3Dmxgraph.aws4.iot_analytics_pipeline%3BfontColor%3D%23ffffff%3B%22%20vertex%3D%221%22%20parent%3D%222%22%3E%3CmxGeometry%20x%3D%2229.75%22%20y%3D%22230.87%22%20width%3D%2280.5%22%20height%3D%2243.34%22%20as%3D%22geometry%22%2F%3E%3C%2FmxCell%3E%3C%2Froot%3E%3C%2FmxGraphModel%3E&lt;/span&gt;" style="sketch=0;outlineConnect=0;fillColor=#6a00ff;strokeColor=#3700CC;dashed=0;verticalLabelPosition=bottom;verticalAlign=top;align=center;html=1;fontSize=12;fontStyle=0;aspect=fixed;pointerEvents=1;shape=mxgraph.aws4.iot_analytics_pipeline;fontColor=#ffffff;" parent="1zjH6qObIByruiWaNDZl-7" vertex="1">
          <mxGeometry x="27.73125" y="280.87" width="75.03750000000001" height="40.39907142857143" as="geometry" />
        </mxCell>
        <mxCell id="nltJWAeBDd0AYbxvlWmP-51" value="" style="verticalLabelPosition=bottom;verticalAlign=top;html=1;shape=mxgraph.basic.tick;fillColor=#008a00;fontColor=#ffffff;strokeColor=#005700;" parent="1zjH6qObIByruiWaNDZl-7" vertex="1">
          <mxGeometry x="103.74" y="103" width="30.26" height="20.87" as="geometry" />
        </mxCell>
        <mxCell id="nltJWAeBDd0AYbxvlWmP-52" value="" style="verticalLabelPosition=bottom;verticalAlign=top;html=1;shape=mxgraph.basic.tick;fillColor=#008a00;fontColor=#ffffff;strokeColor=#005700;" parent="1zjH6qObIByruiWaNDZl-7" vertex="1">
          <mxGeometry x="105.76999999999998" y="162.87" width="30.26" height="20.87" as="geometry" />
        </mxCell>
        <mxCell id="nltJWAeBDd0AYbxvlWmP-56" value="" style="verticalLabelPosition=bottom;verticalAlign=top;html=1;shape=mxgraph.basic.tick;fillColor=#008a00;fontColor=#ffffff;strokeColor=#005700;" parent="1zjH6qObIByruiWaNDZl-7" vertex="1">
          <mxGeometry x="105.76999999999998" y="268.87" width="30.26" height="20.87" as="geometry" />
        </mxCell>
        <mxCell id="1zjH6qObIByruiWaNDZl-24" value="&lt;span style=&quot;color: rgb(0, 0, 0); font-family: Helvetica; font-size: 12px; font-style: normal; font-variant-ligatures: normal; font-variant-caps: normal; font-weight: 400; letter-spacing: normal; orphans: 2; text-align: center; text-indent: 0px; text-transform: none; widows: 2; word-spacing: 0px; -webkit-text-stroke-width: 0px; white-space: normal; background-color: rgb(251, 251, 251); text-decoration-thickness: initial; text-decoration-style: initial; text-decoration-color: initial; display: inline !important; float: none;&quot;&gt;Source Layer&lt;/span&gt;" style="text;whiteSpace=wrap;html=1;" parent="1" vertex="1">
          <mxGeometry x="-126" y="-720.32" width="100" height="40" as="geometry" />
        </mxCell>
        <mxCell id="1zjH6qObIByruiWaNDZl-31" value="" style="rounded=1;fillColor=#E8F0FE;container=0;whiteSpace=wrap;labelPosition=center;verticalLabelPosition=top;align=center;verticalAlign=bottom;" parent="1" vertex="1">
          <mxGeometry x="151" y="-780" width="140" height="330" as="geometry" />
        </mxCell>
        <mxCell id="1zjH6qObIByruiWaNDZl-32" value="" style="image;aspect=fixed;html=1;points=[];align=center;fontSize=12;image=img/lib/azure2/storage/Storage_Accounts_Classic.svg;" parent="1" vertex="1">
          <mxGeometry x="170" y="-800" width="40" height="32" as="geometry" />
        </mxCell>
        <mxCell id="1zjH6qObIByruiWaNDZl-33" value="&#xa;&lt;span style=&quot;color: rgb(0, 0, 0); font-family: Helvetica; font-size: 12px; font-style: normal; font-variant-ligatures: normal; font-variant-caps: normal; font-weight: 400; letter-spacing: normal; orphans: 2; text-align: center; text-indent: 0px; text-transform: none; widows: 2; word-spacing: 0px; -webkit-text-stroke-width: 0px; white-space: normal; background-color: rgb(251, 251, 251); text-decoration-thickness: initial; text-decoration-style: initial; text-decoration-color: initial; display: inline !important; float: none;&quot;&gt;Data Lake Storage&lt;/span&gt;&#xa;&#xa;" style="text;html=1;align=center;verticalAlign=middle;whiteSpace=wrap;rounded=0;" parent="1" vertex="1">
          <mxGeometry x="131" y="-764.28" width="170" height="30" as="geometry" />
        </mxCell>
        <mxCell id="1zjH6qObIByruiWaNDZl-34" value="" style="rounded=1;whiteSpace=wrap;html=1;" parent="1" vertex="1">
          <mxGeometry x="170" y="-710" width="101" height="250" as="geometry" />
        </mxCell>
        <mxCell id="1zjH6qObIByruiWaNDZl-35" value="Row Container" style="image;aspect=fixed;html=1;points=[];align=center;fontSize=12;image=img/lib/azure2/general/Storage_Container.svg;" parent="1" vertex="1">
          <mxGeometry x="197" y="-737.28" width="44.31" height="36" as="geometry" />
        </mxCell>
        <mxCell id="nltJWAeBDd0AYbxvlWmP-2" style="edgeStyle=orthogonalEdgeStyle;rounded=0;orthogonalLoop=1;jettySize=auto;html=1;fillColor=#0050ef;strokeColor=#001DBC;strokeWidth=2;" parent="1" source="1zjH6qObIByruiWaNDZl-36" target="nltJWAeBDd0AYbxvlWmP-1" edge="1">
          <mxGeometry relative="1" as="geometry" />
        </mxCell>
        <mxCell id="nltJWAeBDd0AYbxvlWmP-10" value="Trigger by blob event" style="edgeLabel;html=1;align=center;verticalAlign=middle;resizable=0;points=[];" parent="nltJWAeBDd0AYbxvlWmP-2" vertex="1" connectable="0">
          <mxGeometry x="-0.027" y="7" relative="1" as="geometry">
            <mxPoint x="-3" y="-5" as="offset" />
          </mxGeometry>
        </mxCell>
        <mxCell id="1zjH6qObIByruiWaNDZl-36" value="catalog" style="html=1;verticalLabelPosition=bottom;align=center;labelBackgroundColor=#ffffff;verticalAlign=top;strokeWidth=2;strokeColor=#0080F0;shadow=0;dashed=0;shape=mxgraph.ios7.icons.folder;flipV=0;flipH=0;" parent="1" vertex="1">
          <mxGeometry x="201" y="-660" width="30" height="19.5" as="geometry" />
        </mxCell>
        <mxCell id="1zjH6qObIByruiWaNDZl-37" value="customer data" style="html=1;verticalLabelPosition=bottom;align=center;labelBackgroundColor=#ffffff;verticalAlign=top;strokeWidth=2;strokeColor=#0080F0;shadow=0;dashed=0;shape=mxgraph.ios7.icons.folder;flipV=0;flipH=0;" parent="1" vertex="1">
          <mxGeometry x="201" y="-610" width="30" height="19.5" as="geometry" />
        </mxCell>
        <mxCell id="1zjH6qObIByruiWaNDZl-38" value="order" style="html=1;verticalLabelPosition=bottom;align=center;labelBackgroundColor=#ffffff;verticalAlign=top;strokeWidth=2;strokeColor=#0080F0;shadow=0;dashed=0;shape=mxgraph.ios7.icons.folder;flipV=0;flipH=0;" parent="1" vertex="1">
          <mxGeometry x="201" y="-560" width="30" height="19.5" as="geometry" />
        </mxCell>
        <mxCell id="1zjH6qObIByruiWaNDZl-39" value="Price&amp;amp;Stock" style="html=1;verticalLabelPosition=bottom;align=center;labelBackgroundColor=#ffffff;verticalAlign=top;strokeWidth=2;strokeColor=#0080F0;shadow=0;dashed=0;shape=mxgraph.ios7.icons.folder;flipV=0;flipH=0;" parent="1" vertex="1">
          <mxGeometry x="201" y="-509.5" width="30" height="19.5" as="geometry" />
        </mxCell>
        <mxCell id="1zjH6qObIByruiWaNDZl-41" style="edgeStyle=orthogonalEdgeStyle;rounded=0;orthogonalLoop=1;jettySize=auto;html=1;entryX=0.044;entryY=0.444;entryDx=0;entryDy=0;entryPerimeter=0;strokeWidth=2;fillColor=#0050ef;strokeColor=#001DBC;fontStyle=4" parent="1" source="1zjH6qObIByruiWaNDZl-3" target="1zjH6qObIByruiWaNDZl-37" edge="1">
          <mxGeometry relative="1" as="geometry" />
        </mxCell>
        <mxCell id="1zjH6qObIByruiWaNDZl-42" style="edgeStyle=orthogonalEdgeStyle;rounded=0;orthogonalLoop=1;jettySize=auto;html=1;entryX=0.089;entryY=0.615;entryDx=0;entryDy=0;entryPerimeter=0;strokeWidth=2;fillColor=#0050ef;strokeColor=#001DBC;" parent="1" source="1zjH6qObIByruiWaNDZl-4" target="1zjH6qObIByruiWaNDZl-38" edge="1">
          <mxGeometry relative="1" as="geometry" />
        </mxCell>
        <mxCell id="1zjH6qObIByruiWaNDZl-43" style="edgeStyle=orthogonalEdgeStyle;rounded=0;orthogonalLoop=1;jettySize=auto;html=1;entryX=0.156;entryY=0.761;entryDx=0;entryDy=0;entryPerimeter=0;fillColor=#0050ef;strokeColor=#001DBC;strokeWidth=2;" parent="1" source="1zjH6qObIByruiWaNDZl-5" target="1zjH6qObIByruiWaNDZl-39" edge="1">
          <mxGeometry relative="1" as="geometry" />
        </mxCell>
        <mxCell id="1zjH6qObIByruiWaNDZl-10" value="Azure data Factory&lt;div&gt;- Orchester&lt;/div&gt;&lt;div&gt;- trigger&lt;/div&gt;" style="image;aspect=fixed;html=1;points=[];align=left;fontSize=12;image=img/lib/azure2/databases/Data_Factory.svg;" parent="1" vertex="1">
          <mxGeometry x="341" y="-820" width="45.72" height="45.72" as="geometry" />
        </mxCell>
        <mxCell id="nltJWAeBDd0AYbxvlWmP-12" style="edgeStyle=orthogonalEdgeStyle;rounded=0;orthogonalLoop=1;jettySize=auto;html=1;fillColor=#0050ef;strokeColor=#001DBC;strokeWidth=2;" parent="1" edge="1">
          <mxGeometry relative="1" as="geometry">
            <mxPoint x="231" y="-599" as="sourcePoint" />
            <mxPoint x="360.77166666666676" y="-599.3000000000002" as="targetPoint" />
          </mxGeometry>
        </mxCell>
        <mxCell id="nltJWAeBDd0AYbxvlWmP-13" value="Trigger by blob event" style="edgeLabel;html=1;align=center;verticalAlign=middle;resizable=0;points=[];" parent="nltJWAeBDd0AYbxvlWmP-12" vertex="1" connectable="0">
          <mxGeometry x="-0.027" y="7" relative="1" as="geometry">
            <mxPoint x="-3" y="-5" as="offset" />
          </mxGeometry>
        </mxCell>
        <mxCell id="nltJWAeBDd0AYbxvlWmP-14" style="edgeStyle=orthogonalEdgeStyle;rounded=0;orthogonalLoop=1;jettySize=auto;html=1;fillColor=#0050ef;strokeColor=#001DBC;strokeWidth=2;" parent="1" edge="1">
          <mxGeometry relative="1" as="geometry">
            <mxPoint x="232" y="-543" as="sourcePoint" />
            <mxPoint x="361.77166666666676" y="-543.3000000000002" as="targetPoint" />
          </mxGeometry>
        </mxCell>
        <mxCell id="nltJWAeBDd0AYbxvlWmP-15" value="Trigger by blob event" style="edgeLabel;html=1;align=center;verticalAlign=middle;resizable=0;points=[];" parent="nltJWAeBDd0AYbxvlWmP-14" vertex="1" connectable="0">
          <mxGeometry x="-0.027" y="7" relative="1" as="geometry">
            <mxPoint x="-3" y="-5" as="offset" />
          </mxGeometry>
        </mxCell>
        <mxCell id="nltJWAeBDd0AYbxvlWmP-16" style="edgeStyle=orthogonalEdgeStyle;rounded=0;orthogonalLoop=1;jettySize=auto;html=1;fillColor=#0050ef;strokeColor=#001DBC;strokeWidth=2;" parent="1" edge="1">
          <mxGeometry relative="1" as="geometry">
            <mxPoint x="232" y="-493" as="sourcePoint" />
            <mxPoint x="361.77166666666676" y="-493.3000000000002" as="targetPoint" />
          </mxGeometry>
        </mxCell>
        <mxCell id="nltJWAeBDd0AYbxvlWmP-17" value="Trigger by blob event" style="edgeLabel;html=1;align=center;verticalAlign=middle;resizable=0;points=[];" parent="nltJWAeBDd0AYbxvlWmP-16" vertex="1" connectable="0">
          <mxGeometry x="-0.027" y="7" relative="1" as="geometry">
            <mxPoint x="-3" y="-5" as="offset" />
          </mxGeometry>
        </mxCell>
        <mxCell id="nltJWAeBDd0AYbxvlWmP-18" value="" style="rounded=1;fillColor=#E8F0FE;container=0;whiteSpace=wrap;labelPosition=center;verticalLabelPosition=top;align=center;verticalAlign=bottom;" parent="1" vertex="1">
          <mxGeometry x="655" y="-779" width="140" height="330" as="geometry" />
        </mxCell>
        <mxCell id="nltJWAeBDd0AYbxvlWmP-19" value="" style="image;aspect=fixed;html=1;points=[];align=center;fontSize=12;image=img/lib/azure2/storage/Storage_Accounts_Classic.svg;" parent="1" vertex="1">
          <mxGeometry x="674" y="-800" width="40" height="32" as="geometry" />
        </mxCell>
        <mxCell id="nltJWAeBDd0AYbxvlWmP-20" value="&lt;span style=&quot;color: rgb(0, 0, 0); font-family: Helvetica; font-size: 12px; font-style: normal; font-variant-ligatures: normal; font-variant-caps: normal; font-weight: 400; letter-spacing: normal; orphans: 2; text-align: center; text-indent: 0px; text-transform: none; widows: 2; word-spacing: 0px; -webkit-text-stroke-width: 0px; white-space: normal; background-color: rgb(251, 251, 251); text-decoration-thickness: initial; text-decoration-style: initial; text-decoration-color: initial; display: inline !important; float: none;&quot;&gt;Data Lake Storage&lt;/span&gt;" style="text;html=1;align=center;verticalAlign=middle;whiteSpace=wrap;rounded=0;" parent="1" vertex="1">
          <mxGeometry x="639.5" y="-764.28" width="170" height="30" as="geometry" />
        </mxCell>
        <mxCell id="nltJWAeBDd0AYbxvlWmP-21" value="" style="rounded=1;whiteSpace=wrap;html=1;" parent="1" vertex="1">
          <mxGeometry x="663" y="-720" width="120" height="260" as="geometry" />
        </mxCell>
        <mxCell id="nltJWAeBDd0AYbxvlWmP-22" value="Processed Container" style="image;aspect=fixed;html=1;points=[];align=center;fontSize=12;image=img/lib/azure2/general/Storage_Container.svg;" parent="1" vertex="1">
          <mxGeometry x="702.35" y="-734.28" width="44.31" height="36" as="geometry" />
        </mxCell>
        <mxCell id="nltJWAeBDd0AYbxvlWmP-24" value="catalog" style="html=1;verticalLabelPosition=bottom;align=center;labelBackgroundColor=#ffffff;verticalAlign=top;strokeWidth=2;strokeColor=#0080F0;shadow=0;dashed=0;shape=mxgraph.ios7.icons.folder;flipV=0;flipH=0;" parent="1" vertex="1">
          <mxGeometry x="705" y="-664.28" width="30" height="19.5" as="geometry" />
        </mxCell>
        <mxCell id="nltJWAeBDd0AYbxvlWmP-25" value="customer data" style="html=1;verticalLabelPosition=bottom;align=center;labelBackgroundColor=#ffffff;verticalAlign=top;strokeWidth=2;strokeColor=#0080F0;shadow=0;dashed=0;shape=mxgraph.ios7.icons.folder;flipV=0;flipH=0;" parent="1" vertex="1">
          <mxGeometry x="705" y="-605" width="30" height="19.5" as="geometry" />
        </mxCell>
        <mxCell id="nltJWAeBDd0AYbxvlWmP-26" value="order" style="html=1;verticalLabelPosition=bottom;align=center;labelBackgroundColor=#ffffff;verticalAlign=top;strokeWidth=2;strokeColor=#0080F0;shadow=0;dashed=0;shape=mxgraph.ios7.icons.folder;flipV=0;flipH=0;" parent="1" vertex="1">
          <mxGeometry x="705" y="-552" width="30" height="19.5" as="geometry" />
        </mxCell>
        <mxCell id="nltJWAeBDd0AYbxvlWmP-27" value="Price&amp;amp;Stock" style="html=1;verticalLabelPosition=bottom;align=center;labelBackgroundColor=#ffffff;verticalAlign=top;strokeWidth=2;strokeColor=#0080F0;shadow=0;dashed=0;shape=mxgraph.ios7.icons.folder;flipV=0;flipH=0;" parent="1" vertex="1">
          <mxGeometry x="705" y="-500.78" width="30" height="19.5" as="geometry" />
        </mxCell>
        <mxCell id="nltJWAeBDd0AYbxvlWmP-35" value="" style="rounded=1;whiteSpace=wrap;html=1;fillColor=#fff2cc;strokeColor=#d6b656;" parent="1" vertex="1">
          <mxGeometry x="485.84000000000003" y="-788" width="144" height="340" as="geometry" />
        </mxCell>
        <mxCell id="1zjH6qObIByruiWaNDZl-12" value="Azure Databricks:&lt;div style=&quot;text-align: left;&quot;&gt;- Compute cluster&lt;/div&gt;" style="image;aspect=fixed;html=1;points=[];align=center;fontSize=12;image=img/lib/azure2/analytics/Azure_Databricks.svg;" parent="1" vertex="1">
          <mxGeometry x="530.23" y="-822.87" width="44.33" height="48" as="geometry" />
        </mxCell>
        <mxCell id="nltJWAeBDd0AYbxvlWmP-38" value="" style="sketch=0;outlineConnect=0;fontColor=#232F3E;gradientColor=none;fillColor=#01A88D;strokeColor=none;dashed=0;verticalLabelPosition=bottom;verticalAlign=top;align=center;html=1;fontSize=12;fontStyle=0;aspect=fixed;pointerEvents=1;shape=mxgraph.aws4.sagemaker_notebook;" parent="1" vertex="1">
          <mxGeometry x="536.77" y="-667.0699999999999" width="29.42" height="33.75" as="geometry" />
        </mxCell>
        <mxCell id="nltJWAeBDd0AYbxvlWmP-42" value="" style="sketch=0;outlineConnect=0;fontColor=#232F3E;gradientColor=none;fillColor=#01A88D;strokeColor=none;dashed=0;verticalLabelPosition=bottom;verticalAlign=top;align=center;html=1;fontSize=12;fontStyle=0;aspect=fixed;pointerEvents=1;shape=mxgraph.aws4.sagemaker_notebook;" parent="1" vertex="1">
          <mxGeometry x="536.77" y="-611" width="29.42" height="33.75" as="geometry" />
        </mxCell>
        <mxCell id="nltJWAeBDd0AYbxvlWmP-43" value="" style="sketch=0;outlineConnect=0;fontColor=#232F3E;gradientColor=none;fillColor=#01A88D;strokeColor=none;dashed=0;verticalLabelPosition=bottom;verticalAlign=top;align=center;html=1;fontSize=12;fontStyle=0;aspect=fixed;pointerEvents=1;shape=mxgraph.aws4.sagemaker_notebook;" parent="1" vertex="1">
          <mxGeometry x="536.77" y="-557" width="29.42" height="33.75" as="geometry" />
        </mxCell>
        <mxCell id="nltJWAeBDd0AYbxvlWmP-44" value="" style="sketch=0;outlineConnect=0;fontColor=#232F3E;gradientColor=none;fillColor=#01A88D;strokeColor=none;dashed=0;verticalLabelPosition=bottom;verticalAlign=top;align=center;html=1;fontSize=12;fontStyle=0;aspect=fixed;pointerEvents=1;shape=mxgraph.aws4.sagemaker_notebook;" parent="1" vertex="1">
          <mxGeometry x="536.77" y="-506.5" width="29.42" height="33.75" as="geometry" />
        </mxCell>
        <mxCell id="nltJWAeBDd0AYbxvlWmP-45" style="edgeStyle=orthogonalEdgeStyle;rounded=0;orthogonalLoop=1;jettySize=auto;html=1;fillColor=#0050ef;strokeColor=#001DBC;strokeWidth=2;" parent="1" edge="1">
          <mxGeometry relative="1" as="geometry">
            <mxPoint x="429.75301785714237" y="-659.9230769230771" as="sourcePoint" />
            <mxPoint x="536.77" y="-660.2307692307695" as="targetPoint" />
          </mxGeometry>
        </mxCell>
        <mxCell id="nltJWAeBDd0AYbxvlWmP-48" style="edgeStyle=orthogonalEdgeStyle;rounded=0;orthogonalLoop=1;jettySize=auto;html=1;fillColor=#0050ef;strokeColor=#001DBC;strokeWidth=2;" parent="1" edge="1">
          <mxGeometry relative="1" as="geometry">
            <mxPoint x="432.7824821428567" y="-496.8461538461538" as="sourcePoint" />
            <mxPoint x="536.77" y="-497.61538461538476" as="targetPoint" />
          </mxGeometry>
        </mxCell>
        <mxCell id="nltJWAeBDd0AYbxvlWmP-53" value="" style="verticalLabelPosition=bottom;verticalAlign=top;html=1;shape=mxgraph.basic.tick;fillColor=#008a00;fontColor=#ffffff;strokeColor=#005700;" parent="1" vertex="1">
          <mxGeometry x="436.27" y="-573.45" width="30.26" height="20.87" as="geometry" />
        </mxCell>
        <mxCell id="nltJWAeBDd0AYbxvlWmP-57" style="edgeStyle=orthogonalEdgeStyle;rounded=0;orthogonalLoop=1;jettySize=auto;html=1;entryX=0;entryY=0.698;entryDx=0;entryDy=0;entryPerimeter=0;strokeWidth=2;fillColor=#0050ef;strokeColor=#001DBC;" parent="1" source="nltJWAeBDd0AYbxvlWmP-38" edge="1">
          <mxGeometry relative="1" as="geometry">
            <mxPoint x="581" y="-650" as="sourcePoint" />
            <mxPoint x="704" y="-650.6690000000003" as="targetPoint" />
          </mxGeometry>
        </mxCell>
        <mxCell id="nltJWAeBDd0AYbxvlWmP-61" value="Write in parquet" style="edgeLabel;html=1;align=center;verticalAlign=middle;resizable=0;points=[];" parent="nltJWAeBDd0AYbxvlWmP-57" vertex="1" connectable="0">
          <mxGeometry x="-0.474" y="2" relative="1" as="geometry">
            <mxPoint x="24" y="-8" as="offset" />
          </mxGeometry>
        </mxCell>
        <mxCell id="nltJWAeBDd0AYbxvlWmP-62" style="edgeStyle=orthogonalEdgeStyle;rounded=0;orthogonalLoop=1;jettySize=auto;html=1;entryX=0;entryY=0.698;entryDx=0;entryDy=0;entryPerimeter=0;strokeWidth=2;fillColor=#0050ef;strokeColor=#001DBC;" parent="1" source="nltJWAeBDd0AYbxvlWmP-42" edge="1">
          <mxGeometry relative="1" as="geometry">
            <mxPoint x="591" y="-590" as="sourcePoint" />
            <mxPoint x="703" y="-594.6690000000003" as="targetPoint" />
          </mxGeometry>
        </mxCell>
        <mxCell id="nltJWAeBDd0AYbxvlWmP-63" value="Write in parquet" style="edgeLabel;html=1;align=center;verticalAlign=middle;resizable=0;points=[];" parent="nltJWAeBDd0AYbxvlWmP-62" vertex="1" connectable="0">
          <mxGeometry x="-0.474" y="2" relative="1" as="geometry">
            <mxPoint x="24" y="-8" as="offset" />
          </mxGeometry>
        </mxCell>
        <mxCell id="nltJWAeBDd0AYbxvlWmP-64" style="edgeStyle=orthogonalEdgeStyle;rounded=0;orthogonalLoop=1;jettySize=auto;html=1;entryX=0;entryY=0.698;entryDx=0;entryDy=0;entryPerimeter=0;strokeWidth=2;fillColor=#0050ef;strokeColor=#001DBC;" parent="1" source="nltJWAeBDd0AYbxvlWmP-43" edge="1">
          <mxGeometry relative="1" as="geometry">
            <mxPoint x="591" y="-542" as="sourcePoint" />
            <mxPoint x="704" y="-541.6690000000003" as="targetPoint" />
          </mxGeometry>
        </mxCell>
        <mxCell id="nltJWAeBDd0AYbxvlWmP-65" value="Write in parquet" style="edgeLabel;html=1;align=center;verticalAlign=middle;resizable=0;points=[];" parent="nltJWAeBDd0AYbxvlWmP-64" vertex="1" connectable="0">
          <mxGeometry x="-0.474" y="2" relative="1" as="geometry">
            <mxPoint x="24" y="-8" as="offset" />
          </mxGeometry>
        </mxCell>
        <mxCell id="nltJWAeBDd0AYbxvlWmP-66" style="edgeStyle=orthogonalEdgeStyle;rounded=0;orthogonalLoop=1;jettySize=auto;html=1;entryX=0;entryY=0.698;entryDx=0;entryDy=0;entryPerimeter=0;strokeWidth=2;fillColor=#0050ef;strokeColor=#001DBC;" parent="1" source="nltJWAeBDd0AYbxvlWmP-44" edge="1">
          <mxGeometry relative="1" as="geometry">
            <mxPoint x="591" y="-490" as="sourcePoint" />
            <mxPoint x="703" y="-489.6690000000003" as="targetPoint" />
          </mxGeometry>
        </mxCell>
        <mxCell id="nltJWAeBDd0AYbxvlWmP-67" value="Write in parquet" style="edgeLabel;html=1;align=center;verticalAlign=middle;resizable=0;points=[];" parent="nltJWAeBDd0AYbxvlWmP-66" vertex="1" connectable="0">
          <mxGeometry x="-0.474" y="2" relative="1" as="geometry">
            <mxPoint x="24" y="-8" as="offset" />
          </mxGeometry>
        </mxCell>
        <mxCell id="RH50ju2F59jBH_H8k_wx-3" style="edgeStyle=orthogonalEdgeStyle;rounded=0;orthogonalLoop=1;jettySize=auto;html=1;entryX=0;entryY=0.75;entryDx=0;entryDy=0;fillColor=#0050ef;strokeColor=#001DBC;strokeWidth=3;" parent="1" source="nltJWAeBDd0AYbxvlWmP-68" target="RH50ju2F59jBH_H8k_wx-1" edge="1">
          <mxGeometry relative="1" as="geometry">
            <Array as="points">
              <mxPoint x="1001" y="-566" />
              <mxPoint x="1001" y="-648" />
            </Array>
          </mxGeometry>
        </mxCell>
        <mxCell id="nltJWAeBDd0AYbxvlWmP-68" value="" style="rounded=1;whiteSpace=wrap;html=1;fillColor=#fff2cc;strokeColor=#d6b656;" parent="1" vertex="1">
          <mxGeometry x="847" y="-655" width="144" height="178" as="geometry" />
        </mxCell>
        <mxCell id="nltJWAeBDd0AYbxvlWmP-69" value="Azure Databricks:&lt;br&gt;&lt;div style=&quot;text-align: left;&quot;&gt;- Data exploration&lt;/div&gt;&lt;div style=&quot;text-align: left;&quot;&gt;- View for visualization&lt;/div&gt;&lt;div style=&quot;text-align: left;&quot;&gt;- Feature engineering&lt;/div&gt;&lt;div style=&quot;text-align: left;&quot;&gt;- Compute cluster&lt;/div&gt;" style="image;aspect=fixed;html=1;points=[];align=center;fontSize=12;image=img/lib/azure2/analytics/Azure_Databricks.svg;" parent="1" vertex="1">
          <mxGeometry x="893.3900000000001" y="-689.87" width="44.33" height="48" as="geometry" />
        </mxCell>
        <mxCell id="nltJWAeBDd0AYbxvlWmP-70" value="" style="sketch=0;outlineConnect=0;fontColor=#232F3E;gradientColor=none;fillColor=#01A88D;strokeColor=none;dashed=0;verticalLabelPosition=bottom;verticalAlign=top;align=center;html=1;fontSize=12;fontStyle=0;aspect=fixed;pointerEvents=1;shape=mxgraph.aws4.sagemaker_notebook;" parent="1" vertex="1">
          <mxGeometry x="897.9300000000001" y="-534.0699999999999" width="29.42" height="33.75" as="geometry" />
        </mxCell>
        <mxCell id="YrzXOJ76eGqDK2lXKvUj-2" value="" style="endArrow=none;dashed=1;html=1;rounded=0;strokeWidth=4;" parent="1" edge="1">
          <mxGeometry width="50" height="50" relative="1" as="geometry">
            <mxPoint x="813" y="-320" as="sourcePoint" />
            <mxPoint x="813" y="-886" as="targetPoint" />
          </mxGeometry>
        </mxCell>
        <mxCell id="YrzXOJ76eGqDK2lXKvUj-5" value="&lt;b&gt;&lt;font style=&quot;font-size: 17px;&quot;&gt;Data ingestion&amp;nbsp; Pipeline&amp;nbsp;&lt;/font&gt;&lt;/b&gt;" style="text;html=1;align=center;verticalAlign=middle;whiteSpace=wrap;rounded=0;" parent="1" vertex="1">
          <mxGeometry x="326.19" y="-880" width="240" height="30" as="geometry" />
        </mxCell>
        <mxCell id="9Rx8b3-LZkCvz83-9TIN-3" value="Data scientist&lt;div&gt;&lt;font size=&quot;1&quot;&gt;&lt;span style=&quot;font-weight: normal;&quot;&gt;Develop and experimentation&lt;/span&gt;&lt;/font&gt;&lt;/div&gt;" style="image;sketch=0;aspect=fixed;html=1;points=[];align=center;fontSize=13;image=img/lib/mscae/Person.svg;fontStyle=1" parent="1" vertex="1">
          <mxGeometry x="893.3500000000001" y="-779.28" width="37" height="50" as="geometry" />
        </mxCell>
        <mxCell id="RH50ju2F59jBH_H8k_wx-5" style="edgeStyle=orthogonalEdgeStyle;rounded=0;orthogonalLoop=1;jettySize=auto;html=1;entryX=1;entryY=0.75;entryDx=0;entryDy=0;startArrow=classic;startFill=1;fillColor=#0050ef;strokeColor=#001DBC;strokeWidth=3;" parent="1" source="9Rx8b3-LZkCvz83-9TIN-4" target="nltJWAeBDd0AYbxvlWmP-68" edge="1">
          <mxGeometry relative="1" as="geometry" />
        </mxCell>
        <mxCell id="nROi4JAkvcMJPrDDsZaz-3" style="edgeStyle=orthogonalEdgeStyle;rounded=0;orthogonalLoop=1;jettySize=auto;html=1;entryX=0;entryY=0.5;entryDx=0;entryDy=0;fillColor=#0050ef;strokeColor=#001DBC;strokeWidth=2;" parent="1" source="9Rx8b3-LZkCvz83-9TIN-4" target="nROi4JAkvcMJPrDDsZaz-1" edge="1">
          <mxGeometry relative="1" as="geometry" />
        </mxCell>
        <mxCell id="9Rx8b3-LZkCvz83-9TIN-4" value="" style="rounded=1;fillColor=#E8F0FE;container=0;whiteSpace=wrap;labelPosition=center;verticalLabelPosition=top;align=center;verticalAlign=bottom;" parent="1" vertex="1">
          <mxGeometry x="1049" y="-580.5" width="140" height="117.5" as="geometry" />
        </mxCell>
        <mxCell id="9Rx8b3-LZkCvz83-9TIN-5" value="" style="image;aspect=fixed;html=1;points=[];align=center;fontSize=12;image=img/lib/azure2/storage/Storage_Accounts_Classic.svg;" parent="1" vertex="1">
          <mxGeometry x="1068.84" y="-605" width="40" height="32" as="geometry" />
        </mxCell>
        <mxCell id="9Rx8b3-LZkCvz83-9TIN-7" value="Data warehose" style="image;aspect=fixed;html=1;points=[];align=center;fontSize=12;image=img/lib/azure2/general/Storage_Container.svg;" parent="1" vertex="1">
          <mxGeometry x="1096.84" y="-537.75" width="44.31" height="36" as="geometry" />
        </mxCell>
        <mxCell id="nROi4JAkvcMJPrDDsZaz-4" style="edgeStyle=orthogonalEdgeStyle;rounded=0;orthogonalLoop=1;jettySize=auto;html=1;entryX=0.5;entryY=1;entryDx=0;entryDy=0;fillColor=#0050ef;strokeColor=#001DBC;strokeWidth=3;" parent="1" source="9Rx8b3-LZkCvz83-9TIN-12" target="RH50ju2F59jBH_H8k_wx-7" edge="1">
          <mxGeometry relative="1" as="geometry" />
        </mxCell>
        <mxCell id="9Rx8b3-LZkCvz83-9TIN-12" value="&lt;br style=&quot;forced-color-adjust: none; color: rgb(0, 0, 0); font-family: Helvetica; font-size: 12px; font-style: normal; font-variant-ligatures: normal; font-variant-caps: normal; font-weight: 400; letter-spacing: normal; orphans: 2; text-align: center; text-indent: 0px; text-transform: none; widows: 2; word-spacing: 0px; -webkit-text-stroke-width: 0px; white-space: normal; background-color: rgb(251, 251, 251); text-decoration-thickness: initial; text-decoration-style: initial; text-decoration-color: initial;&quot;&gt;&lt;span style=&quot;forced-color-adjust: none; color: rgb(0, 0, 0); font-family: Helvetica; font-size: 12px; font-style: normal; font-variant-ligatures: normal; font-variant-caps: normal; font-weight: 400; letter-spacing: normal; orphans: 2; text-align: center; text-indent: 0px; text-transform: none; widows: 2; word-spacing: 0px; -webkit-text-stroke-width: 0px; white-space: normal; text-decoration-thickness: initial; text-decoration-style: initial; text-decoration-color: initial; background-color: rgb(251, 251, 251); float: none; display: inline !important;&quot;&gt;Data Lake Storage&lt;/span&gt;&lt;br style=&quot;forced-color-adjust: none; color: rgb(0, 0, 0); font-family: Helvetica; font-size: 12px; font-style: normal; font-variant-ligatures: normal; font-variant-caps: normal; font-weight: 400; letter-spacing: normal; orphans: 2; text-align: center; text-indent: 0px; text-transform: none; widows: 2; word-spacing: 0px; -webkit-text-stroke-width: 0px; white-space: normal; background-color: rgb(251, 251, 251); text-decoration-thickness: initial; text-decoration-style: initial; text-decoration-color: initial;&quot;&gt;" style="text;whiteSpace=wrap;html=1;" parent="1" vertex="1">
          <mxGeometry x="1054" y="-590.5" width="130" height="50" as="geometry" />
        </mxCell>
        <mxCell id="RH50ju2F59jBH_H8k_wx-1" value="Feature Store" style="rounded=1;whiteSpace=wrap;html=1;fillColor=#f8cecc;strokeColor=#b85450;" parent="1" vertex="1">
          <mxGeometry x="1047" y="-680.3199999999999" width="140" height="43.32" as="geometry" />
        </mxCell>
        <mxCell id="RH50ju2F59jBH_H8k_wx-7" value="" style="rounded=1;whiteSpace=wrap;html=1;fillColor=#d0cee2;strokeColor=#56517e;" parent="1" vertex="1">
          <mxGeometry x="1261" y="-777" width="250" height="145" as="geometry" />
        </mxCell>
        <mxCell id="RH50ju2F59jBH_H8k_wx-6" value="Azure Machine Learning&lt;div&gt;- MLOps&lt;/div&gt;" style="image;aspect=fixed;html=1;points=[];align=center;fontSize=12;image=img/lib/azure2/ai_machine_learning/Machine_Learning.svg;" parent="1" vertex="1">
          <mxGeometry x="1310" y="-803" width="44.24" height="47" as="geometry" />
        </mxCell>
        <mxCell id="RH50ju2F59jBH_H8k_wx-8" value="" style="sketch=0;outlineConnect=0;fontColor=#ffffff;fillColor=#0050ef;strokeColor=#001DBC;dashed=0;verticalLabelPosition=bottom;verticalAlign=top;align=center;html=1;fontSize=12;fontStyle=0;aspect=fixed;pointerEvents=1;shape=mxgraph.aws4.inferentia;" parent="1" vertex="1">
          <mxGeometry x="1421" y="-704.4300000000001" width="46" height="46" as="geometry" />
        </mxCell>
        <mxCell id="RH50ju2F59jBH_H8k_wx-9" value="&lt;font color=&quot;#000000&quot;&gt;Training Pipleline&lt;/font&gt;" style="sketch=0;outlineConnect=0;fontColor=#ffffff;fillColor=#0050ef;strokeColor=#001DBC;dashed=0;verticalLabelPosition=bottom;verticalAlign=top;align=center;html=1;fontSize=12;fontStyle=0;aspect=fixed;pointerEvents=1;shape=mxgraph.aws4.iot_analytics_pipeline;" parent="1" vertex="1">
          <mxGeometry x="1297" y="-698" width="66.86" height="36" as="geometry" />
        </mxCell>
        <mxCell id="nROi4JAkvcMJPrDDsZaz-1" value="" style="rounded=1;whiteSpace=wrap;html=1;fillColor=#b0e3e6;strokeColor=#0e8088;" parent="1" vertex="1">
          <mxGeometry x="1261" y="-552" width="250" height="122" as="geometry" />
        </mxCell>
        <mxCell id="nROi4JAkvcMJPrDDsZaz-2" value="PowerBI&lt;div&gt;Visualization&lt;/div&gt;" style="image;aspect=fixed;html=1;points=[];align=center;fontSize=12;image=img/lib/azure2/power_platform/PowerBI.svg;" parent="1" vertex="1">
          <mxGeometry x="1354.24" y="-543.63" width="46.76" height="62.35" as="geometry" />
        </mxCell>
        <mxCell id="nROi4JAkvcMJPrDDsZaz-5" style="edgeStyle=orthogonalEdgeStyle;rounded=0;orthogonalLoop=1;jettySize=auto;html=1;entryX=-0.008;entryY=0.582;entryDx=0;entryDy=0;entryPerimeter=0;fillColor=#0050ef;strokeColor=#001DBC;strokeWidth=3;" parent="1" source="RH50ju2F59jBH_H8k_wx-1" target="RH50ju2F59jBH_H8k_wx-7" edge="1">
          <mxGeometry relative="1" as="geometry" />
        </mxCell>
        <mxCell id="nROi4JAkvcMJPrDDsZaz-6" value="Analytic and serving Layer" style="text;html=1;align=center;verticalAlign=middle;whiteSpace=wrap;rounded=0;fontSize=17;fontStyle=1" parent="1" vertex="1">
          <mxGeometry x="1020" y="-871" width="300" height="30" as="geometry" />
        </mxCell>
        <mxCell id="nROi4JAkvcMJPrDDsZaz-11" style="edgeStyle=orthogonalEdgeStyle;rounded=0;orthogonalLoop=1;jettySize=auto;html=1;entryX=0.817;entryY=-0.003;entryDx=0;entryDy=0;entryPerimeter=0;fillColor=#0050ef;strokeColor=#001DBC;strokeWidth=3;" parent="1" source="RH50ju2F59jBH_H8k_wx-8" target="nROi4JAkvcMJPrDDsZaz-1" edge="1">
          <mxGeometry relative="1" as="geometry" />
        </mxCell>
        <mxCell id="nROi4JAkvcMJPrDDsZaz-13" value="&lt;span style=&quot;text-wrap-mode: nowrap;&quot;&gt;Inference&lt;/span&gt;" style="text;html=1;align=center;verticalAlign=middle;whiteSpace=wrap;rounded=0;" parent="1" vertex="1">
          <mxGeometry x="1421" y="-728" width="60" height="30" as="geometry" />
        </mxCell>
        <mxCell id="2N7-qyUZDRO62LL4dCJT-26" value="" style="sketch=0;outlineConnect=0;fillColor=#6a00ff;strokeColor=#3700CC;dashed=0;verticalLabelPosition=bottom;verticalAlign=top;align=center;html=1;fontSize=12;fontStyle=0;aspect=fixed;pointerEvents=1;shape=mxgraph.aws4.iot_analytics_pipeline;fontColor=#ffffff;" parent="1" vertex="1">
          <mxGeometry x="355.20178571428573" y="-670.21" width="75.03750000000001" height="40.39907142857143" as="geometry" />
        </mxCell>
        <mxCell id="2N7-qyUZDRO62LL4dCJT-27" value="" style="sketch=0;outlineConnect=0;fillColor=#6a00ff;strokeColor=#3700CC;dashed=0;verticalLabelPosition=bottom;verticalAlign=top;align=center;html=1;fontSize=12;fontStyle=0;aspect=fixed;pointerEvents=1;shape=mxgraph.aws4.iot_analytics_pipeline;fontColor=#ffffff;" parent="1" vertex="1">
          <mxGeometry x="358.23125" y="-613" width="75.03750000000001" height="40.39907142857143" as="geometry" />
        </mxCell>
        <mxCell id="2N7-qyUZDRO62LL4dCJT-28" value="&lt;span style=&quot;color: rgba(0, 0, 0, 0); font-family: monospace; font-size: 0px; text-align: start;&quot;&gt;%3CmxGraphModel%3E%3Croot%3E%3CmxCell%20id%3D%220%22%2F%3E%3CmxCell%20id%3D%221%22%20parent%3D%220%22%2F%3E%3CmxCell%20id%3D%222%22%20value%3D%22%22%20style%3D%22rounded%3D1%3BwhiteSpace%3Dwrap%3BfillColor%3D%23e1d5e7%3BstrokeColor%3D%239673a6%3B%22%20vertex%3D%221%22%20parent%3D%221%22%3E%3CmxGeometry%20x%3D%22450.5%22%20y%3D%229.13%22%20width%3D%22140%22%20height%3D%22340.87%22%20as%3D%22geometry%22%2F%3E%3C%2FmxCell%3E%3CmxCell%20id%3D%223%22%20value%3D%22%22%20style%3D%22sketch%3D0%3BoutlineConnect%3D0%3BfillColor%3D%236a00ff%3BstrokeColor%3D%233700CC%3Bdashed%3D0%3BverticalLabelPosition%3Dbottom%3BverticalAlign%3Dtop%3Balign%3Dcenter%3Bhtml%3D1%3BfontSize%3D12%3BfontStyle%3D0%3Baspect%3Dfixed%3BpointerEvents%3D1%3Bshape%3Dmxgraph.aws4.iot_analytics_pipeline%3BfontColor%3D%23ffffff%3B%22%20vertex%3D%221%22%20parent%3D%222%22%3E%3CmxGeometry%20x%3D%2229.5%22%20y%3D%22122.66%22%20width%3D%2280.5%22%20height%3D%2243.34%22%20as%3D%22geometry%22%2F%3E%3C%2FmxCell%3E%3CmxCell%20id%3D%224%22%20value%3D%22%22%20style%3D%22sketch%3D0%3BoutlineConnect%3D0%3BfillColor%3D%236a00ff%3BstrokeColor%3D%233700CC%3Bdashed%3D0%3BverticalLabelPosition%3Dbottom%3BverticalAlign%3Dtop%3Balign%3Dcenter%3Bhtml%3D1%3BfontSize%3D12%3BfontStyle%3D0%3Baspect%3Dfixed%3BpointerEvents%3D1%3Bshape%3Dmxgraph.aws4.iot_analytics_pipeline%3BfontColor%3D%23ffffff%3B%22%20vertex%3D%221%22%20parent%3D%222%22%3E%3CmxGeometry%20x%3D%2229.75%22%20y%3D%22176.87%22%20width%3D%2280.5%22%20height%3D%2243.34%22%20as%3D%22geometry%22%2F%3E%3C%2FmxCell%3E%3CmxCell%20id%3D%225%22%20value%3D%22%22%20style%3D%22sketch%3D0%3BoutlineConnect%3D0%3BfillColor%3D%236a00ff%3BstrokeColor%3D%233700CC%3Bdashed%3D0%3BverticalLabelPosition%3Dbottom%3BverticalAlign%3Dtop%3Balign%3Dcenter%3Bhtml%3D1%3BfontSize%3D12%3BfontStyle%3D0%3Baspect%3Dfixed%3BpointerEvents%3D1%3Bshape%3Dmxgraph.aws4.iot_analytics_pipeline%3BfontColor%3D%23ffffff%3B%22%20vertex%3D%221%22%20parent%3D%222%22%3E%3CmxGeometry%20x%3D%2229.75%22%20y%3D%22230.87%22%20width%3D%2280.5%22%20height%3D%2243.34%22%20as%3D%22geometry%22%2F%3E%3C%2FmxCell%3E%3C%2Froot%3E%3C%2FmxGraphModel%3E&lt;/span&gt;" style="sketch=0;outlineConnect=0;fillColor=#6a00ff;strokeColor=#3700CC;dashed=0;verticalLabelPosition=bottom;verticalAlign=top;align=center;html=1;fontSize=12;fontStyle=0;aspect=fixed;pointerEvents=1;shape=mxgraph.aws4.iot_analytics_pipeline;fontColor=#ffffff;" parent="1" vertex="1">
          <mxGeometry x="358.23125" y="-559" width="75.03750000000001" height="40.39907142857143" as="geometry" />
        </mxCell>
        <mxCell id="2N7-qyUZDRO62LL4dCJT-29" value="&lt;span style=&quot;color: rgba(0, 0, 0, 0); font-family: monospace; font-size: 0px; text-align: start;&quot;&gt;%3CmxGraphModel%3E%3Croot%3E%3CmxCell%20id%3D%220%22%2F%3E%3CmxCell%20id%3D%221%22%20parent%3D%220%22%2F%3E%3CmxCell%20id%3D%222%22%20value%3D%22%22%20style%3D%22rounded%3D1%3BwhiteSpace%3Dwrap%3BfillColor%3D%23e1d5e7%3BstrokeColor%3D%239673a6%3B%22%20vertex%3D%221%22%20parent%3D%221%22%3E%3CmxGeometry%20x%3D%22450.5%22%20y%3D%229.13%22%20width%3D%22140%22%20height%3D%22340.87%22%20as%3D%22geometry%22%2F%3E%3C%2FmxCell%3E%3CmxCell%20id%3D%223%22%20value%3D%22%22%20style%3D%22sketch%3D0%3BoutlineConnect%3D0%3BfillColor%3D%236a00ff%3BstrokeColor%3D%233700CC%3Bdashed%3D0%3BverticalLabelPosition%3Dbottom%3BverticalAlign%3Dtop%3Balign%3Dcenter%3Bhtml%3D1%3BfontSize%3D12%3BfontStyle%3D0%3Baspect%3Dfixed%3BpointerEvents%3D1%3Bshape%3Dmxgraph.aws4.iot_analytics_pipeline%3BfontColor%3D%23ffffff%3B%22%20vertex%3D%221%22%20parent%3D%222%22%3E%3CmxGeometry%20x%3D%2229.5%22%20y%3D%22122.66%22%20width%3D%2280.5%22%20height%3D%2243.34%22%20as%3D%22geometry%22%2F%3E%3C%2FmxCell%3E%3CmxCell%20id%3D%224%22%20value%3D%22%22%20style%3D%22sketch%3D0%3BoutlineConnect%3D0%3BfillColor%3D%236a00ff%3BstrokeColor%3D%233700CC%3Bdashed%3D0%3BverticalLabelPosition%3Dbottom%3BverticalAlign%3Dtop%3Balign%3Dcenter%3Bhtml%3D1%3BfontSize%3D12%3BfontStyle%3D0%3Baspect%3Dfixed%3BpointerEvents%3D1%3Bshape%3Dmxgraph.aws4.iot_analytics_pipeline%3BfontColor%3D%23ffffff%3B%22%20vertex%3D%221%22%20parent%3D%222%22%3E%3CmxGeometry%20x%3D%2229.75%22%20y%3D%22176.87%22%20width%3D%2280.5%22%20height%3D%2243.34%22%20as%3D%22geometry%22%2F%3E%3C%2FmxCell%3E%3CmxCell%20id%3D%225%22%20value%3D%22%22%20style%3D%22sketch%3D0%3BoutlineConnect%3D0%3BfillColor%3D%236a00ff%3BstrokeColor%3D%233700CC%3Bdashed%3D0%3BverticalLabelPosition%3Dbottom%3BverticalAlign%3Dtop%3Balign%3Dcenter%3Bhtml%3D1%3BfontSize%3D12%3BfontStyle%3D0%3Baspect%3Dfixed%3BpointerEvents%3D1%3Bshape%3Dmxgraph.aws4.iot_analytics_pipeline%3BfontColor%3D%23ffffff%3B%22%20vertex%3D%221%22%20parent%3D%222%22%3E%3CmxGeometry%20x%3D%2229.75%22%20y%3D%22230.87%22%20width%3D%2280.5%22%20height%3D%2243.34%22%20as%3D%22geometry%22%2F%3E%3C%2FmxCell%3E%3C%2Froot%3E%3C%2FmxGraphModel%3E&lt;/span&gt;" style="sketch=0;outlineConnect=0;fillColor=#6a00ff;strokeColor=#3700CC;dashed=0;verticalLabelPosition=bottom;verticalAlign=top;align=center;html=1;fontSize=12;fontStyle=0;aspect=fixed;pointerEvents=1;shape=mxgraph.aws4.iot_analytics_pipeline;fontColor=#ffffff;" parent="1" vertex="1">
          <mxGeometry x="358.23125" y="-509" width="75.03750000000001" height="40.39907142857143" as="geometry" />
        </mxCell>
        <mxCell id="2N7-qyUZDRO62LL4dCJT-30" value="" style="verticalLabelPosition=bottom;verticalAlign=top;html=1;shape=mxgraph.basic.tick;fillColor=#008a00;fontColor=#ffffff;strokeColor=#005700;" parent="1" vertex="1">
          <mxGeometry x="434.24" y="-686.87" width="30.26" height="20.87" as="geometry" />
        </mxCell>
        <mxCell id="2N7-qyUZDRO62LL4dCJT-31" value="" style="verticalLabelPosition=bottom;verticalAlign=top;html=1;shape=mxgraph.basic.tick;fillColor=#008a00;fontColor=#ffffff;strokeColor=#005700;" parent="1" vertex="1">
          <mxGeometry x="436.27" y="-627" width="30.26" height="20.87" as="geometry" />
        </mxCell>
        <mxCell id="2N7-qyUZDRO62LL4dCJT-32" value="" style="verticalLabelPosition=bottom;verticalAlign=top;html=1;shape=mxgraph.basic.tick;fillColor=#008a00;fontColor=#ffffff;strokeColor=#005700;" parent="1" vertex="1">
          <mxGeometry x="436.27" y="-521" width="30.26" height="20.87" as="geometry" />
        </mxCell>
        <mxCell id="2N7-qyUZDRO62LL4dCJT-33" value="" style="group" parent="1" vertex="1" connectable="0">
          <mxGeometry x="436.27" y="-656.81" width="96" height="30" as="geometry" />
        </mxCell>
        <mxCell id="2N7-qyUZDRO62LL4dCJT-34" value="" style="verticalLabelPosition=bottom;verticalAlign=top;html=1;shape=mxgraph.basic.x;fillColor=#e51400;fontColor=#000000;strokeColor=#B20000;labelBackgroundColor=default;" parent="2N7-qyUZDRO62LL4dCJT-33" vertex="1">
          <mxGeometry y="4" width="20" height="20" as="geometry" />
        </mxCell>
        <mxCell id="2N7-qyUZDRO62LL4dCJT-35" value="&lt;span style=&quot;background-color: rgb(255, 255, 255);&quot;&gt;Feedback&lt;/span&gt;" style="text;html=1;align=center;verticalAlign=middle;resizable=0;points=[];autosize=1;strokeColor=none;fillColor=none;fontSize=14;" parent="2N7-qyUZDRO62LL4dCJT-33" vertex="1">
          <mxGeometry x="16" width="80" height="30" as="geometry" />
        </mxCell>
        <mxCell id="nltJWAeBDd0AYbxvlWmP-47" style="edgeStyle=orthogonalEdgeStyle;rounded=0;orthogonalLoop=1;jettySize=auto;html=1;fillColor=#0050ef;strokeColor=#001DBC;strokeWidth=2;" parent="1" edge="1">
          <mxGeometry relative="1" as="geometry">
            <mxPoint x="438.78248214285713" y="-549.2500000000002" as="sourcePoint" />
            <mxPoint x="533.77" y="-549.55" as="targetPoint" />
          </mxGeometry>
        </mxCell>
        <mxCell id="2N7-qyUZDRO62LL4dCJT-39" style="edgeStyle=orthogonalEdgeStyle;rounded=0;orthogonalLoop=1;jettySize=auto;html=1;fillColor=#0050ef;strokeColor=#001DBC;strokeWidth=2;" parent="1" edge="1">
          <mxGeometry relative="1" as="geometry">
            <mxPoint x="441.78248214285713" y="-603.2500000000002" as="sourcePoint" />
            <mxPoint x="536.77" y="-603.55" as="targetPoint" />
          </mxGeometry>
        </mxCell>
        <mxCell id="2N7-qyUZDRO62LL4dCJT-40" value="" style="group" parent="1" vertex="1" connectable="0">
          <mxGeometry x="438.27" y="-601.81" width="96" height="30" as="geometry" />
        </mxCell>
        <mxCell id="2N7-qyUZDRO62LL4dCJT-41" value="" style="verticalLabelPosition=bottom;verticalAlign=top;html=1;shape=mxgraph.basic.x;fillColor=#e51400;fontColor=#000000;strokeColor=#B20000;labelBackgroundColor=default;" parent="2N7-qyUZDRO62LL4dCJT-40" vertex="1">
          <mxGeometry y="4" width="20" height="20" as="geometry" />
        </mxCell>
        <mxCell id="2N7-qyUZDRO62LL4dCJT-42" value="&lt;span style=&quot;background-color: rgb(255, 255, 255);&quot;&gt;Feedback&lt;/span&gt;" style="text;html=1;align=center;verticalAlign=middle;resizable=0;points=[];autosize=1;strokeColor=none;fillColor=none;fontSize=14;" parent="2N7-qyUZDRO62LL4dCJT-40" vertex="1">
          <mxGeometry x="16" width="80" height="30" as="geometry" />
        </mxCell>
        <mxCell id="2N7-qyUZDRO62LL4dCJT-43" value="" style="group" parent="1" vertex="1" connectable="0">
          <mxGeometry x="436.27" y="-543.81" width="96" height="30" as="geometry" />
        </mxCell>
        <mxCell id="2N7-qyUZDRO62LL4dCJT-44" value="" style="verticalLabelPosition=bottom;verticalAlign=top;html=1;shape=mxgraph.basic.x;fillColor=#e51400;fontColor=#000000;strokeColor=#B20000;labelBackgroundColor=default;" parent="2N7-qyUZDRO62LL4dCJT-43" vertex="1">
          <mxGeometry y="4" width="20" height="20" as="geometry" />
        </mxCell>
        <mxCell id="2N7-qyUZDRO62LL4dCJT-45" value="&lt;span style=&quot;background-color: rgb(255, 255, 255);&quot;&gt;Feedback&lt;/span&gt;" style="text;html=1;align=center;verticalAlign=middle;resizable=0;points=[];autosize=1;strokeColor=none;fillColor=none;fontSize=14;" parent="2N7-qyUZDRO62LL4dCJT-43" vertex="1">
          <mxGeometry x="16" width="80" height="30" as="geometry" />
        </mxCell>
        <mxCell id="2N7-qyUZDRO62LL4dCJT-46" value="" style="group" parent="1" vertex="1" connectable="0">
          <mxGeometry x="437.27" y="-492.81" width="96" height="30" as="geometry" />
        </mxCell>
        <mxCell id="2N7-qyUZDRO62LL4dCJT-47" value="" style="verticalLabelPosition=bottom;verticalAlign=top;html=1;shape=mxgraph.basic.x;fillColor=#e51400;fontColor=#000000;strokeColor=#B20000;labelBackgroundColor=default;" parent="2N7-qyUZDRO62LL4dCJT-46" vertex="1">
          <mxGeometry y="4" width="20" height="20" as="geometry" />
        </mxCell>
        <mxCell id="2N7-qyUZDRO62LL4dCJT-48" value="&lt;span style=&quot;background-color: rgb(255, 255, 255);&quot;&gt;Feedback&lt;/span&gt;" style="text;html=1;align=center;verticalAlign=middle;resizable=0;points=[];autosize=1;strokeColor=none;fillColor=none;fontSize=14;" parent="2N7-qyUZDRO62LL4dCJT-46" vertex="1">
          <mxGeometry x="16" width="80" height="30" as="geometry" />
        </mxCell>
        <mxCell id="oa4fXH4DdUcv1K2VR2Nh-2" value="&lt;ul style=&quot;forced-color-adjust: none; color: rgb(0, 0, 0); font-family: Helvetica; font-style: normal; font-variant-ligatures: normal; font-variant-caps: normal; font-weight: 400; letter-spacing: normal; orphans: 2; text-align: left; text-indent: 0px; text-transform: none; widows: 2; word-spacing: 0px; -webkit-text-stroke-width: 0px; white-space: normal; text-decoration-thickness: initial; text-decoration-style: initial; text-decoration-color: initial; font-size: 15px; background-color: rgb(251, 251, 251);&quot;&gt;&lt;li style=&quot;forced-color-adjust: none;&quot;&gt;Format validation&lt;/li&gt;&lt;li style=&quot;forced-color-adjust: none;&quot;&gt;Schema compliance&lt;/li&gt;&lt;li style=&quot;forced-color-adjust: none;&quot;&gt;Validate file structure, size, and metadata&lt;/li&gt;&lt;/ul&gt;" style="text;whiteSpace=wrap;html=1;strokeWidth=1;fillColor=none;strokeColor=#121212;" vertex="1" parent="1">
          <mxGeometry x="-406" y="-1030" width="270" height="115" as="geometry" />
        </mxCell>
        <mxCell id="oa4fXH4DdUcv1K2VR2Nh-4" style="edgeStyle=orthogonalEdgeStyle;rounded=0;orthogonalLoop=1;jettySize=auto;html=1;entryX=-0.133;entryY=0.564;entryDx=0;entryDy=0;entryPerimeter=0;fillColor=#0050ef;strokeColor=#001DBC;strokeWidth=2;" edge="1" parent="1" source="1zjH6qObIByruiWaNDZl-2" target="1zjH6qObIByruiWaNDZl-36">
          <mxGeometry relative="1" as="geometry" />
        </mxCell>
        <mxCell id="oa4fXH4DdUcv1K2VR2Nh-51" style="edgeStyle=orthogonalEdgeStyle;rounded=0;orthogonalLoop=1;jettySize=auto;html=1;fillColor=#e51400;strokeColor=#B20000;strokeWidth=2;" edge="1" parent="1" source="oa4fXH4DdUcv1K2VR2Nh-8" target="oa4fXH4DdUcv1K2VR2Nh-49">
          <mxGeometry relative="1" as="geometry" />
        </mxCell>
        <mxCell id="oa4fXH4DdUcv1K2VR2Nh-8" value="Bosch" style="rounded=0;whiteSpace=wrap;html=1;" vertex="1" parent="1">
          <mxGeometry x="-600" y="-706" width="120" height="60" as="geometry" />
        </mxCell>
        <mxCell id="oa4fXH4DdUcv1K2VR2Nh-52" style="edgeStyle=orthogonalEdgeStyle;rounded=0;orthogonalLoop=1;jettySize=auto;html=1;strokeWidth=2;fillColor=#fa6800;strokeColor=#C73500;" edge="1" parent="1" source="oa4fXH4DdUcv1K2VR2Nh-9" target="oa4fXH4DdUcv1K2VR2Nh-48">
          <mxGeometry relative="1" as="geometry" />
        </mxCell>
        <mxCell id="oa4fXH4DdUcv1K2VR2Nh-9" value="Knipex" style="rounded=0;whiteSpace=wrap;html=1;" vertex="1" parent="1">
          <mxGeometry x="-600" y="-618" width="120" height="60" as="geometry" />
        </mxCell>
        <mxCell id="oa4fXH4DdUcv1K2VR2Nh-10" value="..." style="rounded=0;whiteSpace=wrap;html=1;" vertex="1" parent="1">
          <mxGeometry x="-600" y="-512.75" width="120" height="60" as="geometry" />
        </mxCell>
        <mxCell id="oa4fXH4DdUcv1K2VR2Nh-11" value="Azure data Factory&lt;div&gt;- Orchester&lt;/div&gt;&lt;div&gt;- trigger&lt;/div&gt;" style="image;aspect=fixed;html=1;points=[];align=left;fontSize=12;image=img/lib/azure2/databases/Data_Factory.svg;" vertex="1" parent="1">
          <mxGeometry x="-351" y="-820" width="45.72" height="45.72" as="geometry" />
        </mxCell>
        <mxCell id="oa4fXH4DdUcv1K2VR2Nh-14" value="Web service API&amp;nbsp;" style="image;aspect=fixed;html=1;points=[];align=center;fontSize=12;image=img/lib/azure2/app_services/App_Services.svg;" vertex="1" parent="1">
          <mxGeometry x="-324.62" y="-488.12" width="35.62" height="35.62" as="geometry" />
        </mxCell>
        <mxCell id="oa4fXH4DdUcv1K2VR2Nh-18" value="&lt;ul&gt;&lt;li&gt;Schema compliance&lt;/li&gt;&lt;li&gt;Cleans&lt;/li&gt;&lt;li&gt;Business rule verification&lt;/li&gt;&lt;li&gt;Standardize&lt;/li&gt;&lt;li&gt;Transform&lt;/li&gt;&lt;/ul&gt;" style="rounded=0;whiteSpace=wrap;html=1;align=left;fontSize=15;" vertex="1" parent="1">
          <mxGeometry x="454.92999999999995" y="-400" width="222.73" height="100" as="geometry" />
        </mxCell>
        <mxCell id="oa4fXH4DdUcv1K2VR2Nh-33" value="" style="endArrow=classic;html=1;rounded=0;exitX=0.969;exitY=0.548;exitDx=0;exitDy=0;exitPerimeter=0;strokeWidth=3;fillColor=#cdeb8b;strokeColor=#00CC00;" edge="1" parent="1" source="oa4fXH4DdUcv1K2VR2Nh-12">
          <mxGeometry width="50" height="50" relative="1" as="geometry">
            <mxPoint x="-191" y="-559" as="sourcePoint" />
            <mxPoint x="-148" y="-588" as="targetPoint" />
          </mxGeometry>
        </mxCell>
        <mxCell id="oa4fXH4DdUcv1K2VR2Nh-34" value="Pre-Validate&lt;div&gt;Formats&lt;/div&gt;" style="edgeLabel;html=1;align=center;verticalAlign=middle;resizable=0;points=[];" vertex="1" connectable="0" parent="oa4fXH4DdUcv1K2VR2Nh-33">
          <mxGeometry x="-0.2612" y="4" relative="1" as="geometry">
            <mxPoint x="11" y="-15" as="offset" />
          </mxGeometry>
        </mxCell>
        <mxCell id="oa4fXH4DdUcv1K2VR2Nh-37" value="" style="endArrow=none;dashed=1;html=1;rounded=0;fillColor=#a0522d;strokeColor=#6D1F00;exitX=0.795;exitY=0.991;exitDx=0;exitDy=0;exitPerimeter=0;strokeWidth=3;" edge="1" parent="1" source="oa4fXH4DdUcv1K2VR2Nh-2">
          <mxGeometry width="50" height="50" relative="1" as="geometry">
            <mxPoint x="-305.27916030534357" y="-893.3199999999999" as="sourcePoint" />
            <mxPoint x="-191" y="-590" as="targetPoint" />
          </mxGeometry>
        </mxCell>
        <mxCell id="oa4fXH4DdUcv1K2VR2Nh-40" value="" style="endArrow=none;dashed=1;html=1;rounded=0;fillColor=#a0522d;strokeColor=#6D1F00;strokeWidth=3;" edge="1" parent="1">
          <mxGeometry width="50" height="50" relative="1" as="geometry">
            <mxPoint x="551" y="-450" as="sourcePoint" />
            <mxPoint x="551" y="-400" as="targetPoint" />
          </mxGeometry>
        </mxCell>
        <mxCell id="oa4fXH4DdUcv1K2VR2Nh-42" value="" style="endArrow=none;dashed=1;html=1;rounded=0;strokeWidth=4;" edge="1" parent="1">
          <mxGeometry width="50" height="50" relative="1" as="geometry">
            <mxPoint x="131" y="-320" as="sourcePoint" />
            <mxPoint x="131" y="-887.4300000000001" as="targetPoint" />
          </mxGeometry>
        </mxCell>
        <mxCell id="oa4fXH4DdUcv1K2VR2Nh-43" value="&lt;b&gt;&lt;font style=&quot;font-size: 17px;&quot;&gt;Data Source&amp;nbsp; Pipeline&amp;nbsp;&lt;/font&gt;&lt;/b&gt;" style="text;html=1;align=center;verticalAlign=middle;whiteSpace=wrap;rounded=0;" vertex="1" parent="1">
          <mxGeometry x="-179.00000000000006" y="-871" width="240" height="30" as="geometry" />
        </mxCell>
        <mxCell id="oa4fXH4DdUcv1K2VR2Nh-47" value="&lt;b&gt;&lt;font style=&quot;font-size: 13px;&quot;&gt;Copy&lt;/font&gt;&lt;/b&gt;" style="edgeLabel;html=1;align=center;verticalAlign=middle;resizable=0;points=[];" vertex="1" connectable="0" parent="1">
          <mxGeometry x="71.00058823529423" y="-670.2052941176471" as="geometry">
            <mxPoint x="-9" y="8" as="offset" />
          </mxGeometry>
        </mxCell>
        <mxCell id="oa4fXH4DdUcv1K2VR2Nh-48" value="v" style="sketch=0;outlineConnect=0;fillColor=#fa6800;strokeColor=#C73500;dashed=0;verticalLabelPosition=bottom;verticalAlign=top;align=center;html=1;fontSize=12;fontStyle=0;aspect=fixed;pointerEvents=1;shape=mxgraph.aws4.iot_analytics_pipeline;fontColor=#000000;" vertex="1" parent="1">
          <mxGeometry x="-338.0182142857143" y="-632" width="75.03750000000001" height="40.39907142857143" as="geometry" />
        </mxCell>
        <mxCell id="oa4fXH4DdUcv1K2VR2Nh-49" value="v" style="sketch=0;outlineConnect=0;fillColor=#e51400;strokeColor=#B20000;dashed=0;verticalLabelPosition=bottom;verticalAlign=top;align=center;html=1;fontSize=12;fontStyle=0;aspect=fixed;pointerEvents=1;shape=mxgraph.aws4.iot_analytics_pipeline;fontColor=#ffffff;" vertex="1" parent="1">
          <mxGeometry x="-338.0182142857143" y="-695.87" width="75.03750000000001" height="40.39907142857143" as="geometry" />
        </mxCell>
        <mxCell id="oa4fXH4DdUcv1K2VR2Nh-50" value="v" style="sketch=0;outlineConnect=0;fillColor=#6a00ff;strokeColor=#3700CC;dashed=0;verticalLabelPosition=bottom;verticalAlign=top;align=center;html=1;fontSize=12;fontStyle=0;aspect=fixed;pointerEvents=1;shape=mxgraph.aws4.iot_analytics_pipeline;fontColor=#ffffff;" vertex="1" parent="1">
          <mxGeometry x="-338.0182142857143" y="-559.81" width="75.03750000000001" height="40.39907142857143" as="geometry" />
        </mxCell>
        <mxCell id="oa4fXH4DdUcv1K2VR2Nh-53" style="edgeStyle=orthogonalEdgeStyle;rounded=0;orthogonalLoop=1;jettySize=auto;html=1;entryX=-0.009;entryY=0.375;entryDx=0;entryDy=0;entryPerimeter=0;fillColor=#6a00ff;strokeColor=#3700CC;strokeWidth=2;" edge="1" parent="1" source="oa4fXH4DdUcv1K2VR2Nh-10" target="oa4fXH4DdUcv1K2VR2Nh-50">
          <mxGeometry relative="1" as="geometry" />
        </mxCell>
        <mxCell id="oa4fXH4DdUcv1K2VR2Nh-68" value="" style="group" vertex="1" connectable="0" parent="1">
          <mxGeometry x="597" y="-139" width="220.58999999999992" height="94" as="geometry" />
        </mxCell>
        <mxCell id="oa4fXH4DdUcv1K2VR2Nh-60" value="&lt;font style=&quot;font-size: 18px;&quot;&gt;&lt;b&gt;Monitoring&lt;/b&gt;&lt;/font&gt;" style="rounded=1;whiteSpace=wrap;html=1;labelPosition=center;verticalLabelPosition=top;align=center;verticalAlign=bottom;" vertex="1" parent="oa4fXH4DdUcv1K2VR2Nh-68">
          <mxGeometry width="220.59" height="94" as="geometry" />
        </mxCell>
        <mxCell id="nROi4JAkvcMJPrDDsZaz-14" value="Monitor" style="image;aspect=fixed;html=1;points=[];align=center;fontSize=12;image=img/lib/azure2/management_governance/Monitor.svg;" parent="oa4fXH4DdUcv1K2VR2Nh-68" vertex="1">
          <mxGeometry x="26" y="5" width="64" height="64" as="geometry" />
        </mxCell>
        <mxCell id="nROi4JAkvcMJPrDDsZaz-15" value="Log analytics" style="image;aspect=fixed;html=1;points=[];align=center;fontSize=12;image=img/lib/azure2/analytics/Log_Analytics_Workspaces.svg;" parent="oa4fXH4DdUcv1K2VR2Nh-68" vertex="1">
          <mxGeometry x="135.3499999999999" y="17" width="50" height="50" as="geometry" />
        </mxCell>
        <mxCell id="oa4fXH4DdUcv1K2VR2Nh-69" value="" style="group" vertex="1" connectable="0" parent="1">
          <mxGeometry x="1080" y="-137" width="220.58999999999992" height="92" as="geometry" />
        </mxCell>
        <mxCell id="nROi4JAkvcMJPrDDsZaz-9" value="&lt;font style=&quot;font-size: 18px;&quot;&gt;&lt;b&gt;DevOps&lt;/b&gt;&lt;/font&gt;" style="rounded=1;whiteSpace=wrap;html=1;labelPosition=center;verticalLabelPosition=top;align=center;verticalAlign=bottom;" parent="oa4fXH4DdUcv1K2VR2Nh-69" vertex="1">
          <mxGeometry width="220.59" height="92" as="geometry" />
        </mxCell>
        <mxCell id="nROi4JAkvcMJPrDDsZaz-17" value="Github" style="verticalLabelPosition=bottom;html=1;verticalAlign=top;align=center;strokeColor=#001DBC;fillColor=#0050ef;shape=mxgraph.azure.github_code;pointerEvents=1;fontColor=#030303;" parent="oa4fXH4DdUcv1K2VR2Nh-69" vertex="1">
          <mxGeometry x="37.159999999999854" y="15" width="50" height="50" as="geometry" />
        </mxCell>
        <mxCell id="nROi4JAkvcMJPrDDsZaz-18" value="Azure DevOps" style="image;sketch=0;aspect=fixed;html=1;points=[];align=center;fontSize=12;image=img/lib/mscae/Azure_DevOps.svg;" parent="oa4fXH4DdUcv1K2VR2Nh-69" vertex="1">
          <mxGeometry x="122.15999999999985" y="15" width="50" height="50" as="geometry" />
        </mxCell>
        <mxCell id="oa4fXH4DdUcv1K2VR2Nh-70" value="" style="group" vertex="1" connectable="0" parent="1">
          <mxGeometry x="838.7" y="-139" width="220.58999999999992" height="94" as="geometry" />
        </mxCell>
        <mxCell id="oa4fXH4DdUcv1K2VR2Nh-55" value="&lt;span style=&quot;font-size: 18px;&quot;&gt;&lt;b&gt;Security&lt;/b&gt;&lt;/span&gt;" style="rounded=1;whiteSpace=wrap;html=1;labelPosition=center;verticalLabelPosition=top;align=center;verticalAlign=bottom;" vertex="1" parent="oa4fXH4DdUcv1K2VR2Nh-70">
          <mxGeometry width="220.59" height="94" as="geometry" />
        </mxCell>
        <mxCell id="oa4fXH4DdUcv1K2VR2Nh-56" value="" style="image;aspect=fixed;html=1;points=[];align=center;fontSize=12;image=img/lib/azure2/security/Key_Vaults.svg;" vertex="1" parent="oa4fXH4DdUcv1K2VR2Nh-70">
          <mxGeometry x="71.29999999999995" y="12" width="68" height="68" as="geometry" />
        </mxCell>
        <mxCell id="oa4fXH4DdUcv1K2VR2Nh-71" value="" style="group" vertex="1" connectable="0" parent="1">
          <mxGeometry x="124.86000000000001" y="-142" width="437.14" height="110" as="geometry" />
        </mxCell>
        <mxCell id="2N7-qyUZDRO62LL4dCJT-13" value="API Management" style="rounded=1;whiteSpace=wrap;html=1;fontStyle=1;fontSize=19;align=center;labelPosition=center;verticalLabelPosition=top;verticalAlign=bottom;" parent="oa4fXH4DdUcv1K2VR2Nh-71" vertex="1">
          <mxGeometry width="437.14" height="110.00000000000001" as="geometry" />
        </mxCell>
        <mxCell id="2N7-qyUZDRO62LL4dCJT-15" value="&lt;li class=&quot;whitespace-normal break-words&quot;&gt;Expose processed data to partners&lt;/li&gt;&lt;li class=&quot;whitespace-normal break-words&quot;&gt;Manage data access&lt;/li&gt;&lt;li class=&quot;whitespace-normal break-words&quot;&gt;Monitor usage&lt;/li&gt;&lt;li class=&quot;whitespace-normal break-words&quot;&gt;Monetization&lt;/li&gt;" style="text;html=1;align=left;verticalAlign=middle;whiteSpace=wrap;rounded=0;fontSize=18;" parent="oa4fXH4DdUcv1K2VR2Nh-71" vertex="1">
          <mxGeometry x="24.139999999999986" y="4.4" width="360" height="99.00000000000001" as="geometry" />
        </mxCell>
        <mxCell id="2N7-qyUZDRO62LL4dCJT-17" value="azure API Management" style="image;aspect=fixed;html=1;points=[];align=center;fontSize=12;image=img/lib/azure2/app_services/API_Management_Services.svg;" parent="oa4fXH4DdUcv1K2VR2Nh-71" vertex="1">
          <mxGeometry x="328.14" y="11" width="65" height="60" as="geometry" />
        </mxCell>
        <mxCell id="oa4fXH4DdUcv1K2VR2Nh-72" value="" style="group" vertex="1" connectable="0" parent="1">
          <mxGeometry x="-336" y="-142" width="437.14" height="110" as="geometry" />
        </mxCell>
        <mxCell id="2N7-qyUZDRO62LL4dCJT-11" value="Data Governance" style="rounded=1;whiteSpace=wrap;html=1;fontStyle=1;fontSize=19;align=center;labelPosition=center;verticalLabelPosition=top;verticalAlign=bottom;" parent="oa4fXH4DdUcv1K2VR2Nh-72" vertex="1">
          <mxGeometry width="437.14" height="110.00000000000001" as="geometry" />
        </mxCell>
        <mxCell id="2N7-qyUZDRO62LL4dCJT-12" value="&lt;li class=&quot;whitespace-normal break-words&quot;&gt;Data lineage tracking&lt;/li&gt;&lt;li class=&quot;whitespace-normal break-words&quot;&gt;Business glossary&lt;/li&gt;&lt;li class=&quot;whitespace-normal break-words&quot;&gt;Data catalog&lt;/li&gt;&lt;li class=&quot;whitespace-normal break-words&quot;&gt;Data classification&lt;/li&gt;&lt;li class=&quot;whitespace-normal break-words&quot;&gt;Governance policies&lt;/li&gt;" style="text;html=1;align=left;verticalAlign=middle;whiteSpace=wrap;rounded=0;fontSize=18;" parent="oa4fXH4DdUcv1K2VR2Nh-72" vertex="1">
          <mxGeometry x="26.659999999999968" y="4.4" width="314.34" height="105.60000000000001" as="geometry" />
        </mxCell>
        <mxCell id="2N7-qyUZDRO62LL4dCJT-10" value="Azure Purview" style="image;aspect=fixed;html=1;points=[];align=center;fontSize=12;image=img/lib/azure2/databases/Azure_Purview_Accounts.svg;" parent="oa4fXH4DdUcv1K2VR2Nh-72" vertex="1">
          <mxGeometry x="339.1400000000001" y="11" width="68" height="42" as="geometry" />
        </mxCell>
      </root>
    </mxGraphModel>
  </diagram>
</mxfile>
